#!OML:ASF E:/inclinewalkrobotboard/Project1/Captureday1/Session1/subject1.ASF
:FULLY-SPECIFIED
:DEGREES
126
root 0 0 0 76.31829107814323 -27.397366764374617 -45.46060910211233
lowerback -11.190585403937217 7.862791478441958 9.570013874917265
upperback -20.518999648876388 10.073944862221994 2.961204982653979
thorax -15.456961507117555 3.969798243386977 -1.7107667709264387
lowerneck -7.5402381466865 9.77214902671644 5.4107939739378965
upperneck 11.710294441197933 11.681089641164988 7.288498873386779
head 4.804328714021285 6.267488657590282 2.07708325950404
rclavicle 6.093730174747839E-15 -3.4126842241995248E-15
rhumerus 108.5413965905936 -24.87956960279879 -114.95337205858272
rradius 0.8650522978793767
rwrist 69.52006332571128
rhand 13.794102452376293 -12.621329445873782
rfingers 7.125020000000017
rthumb 38.786153461689246 -38.499676203647375
lclavicle -6.171101006129813E-16 1.5090640019377954E-15
lhumerus -0.2882091547623542 24.861309314089002 1.6829882780108747
lradius 9.336367733247702
lwrist -41.45102714501066
lhand 12.132474413535554 36.75992374684565
lfingers 7.125020000000047
lthumb 37.23807783755092 63.84413789134201
rfemur 183.09375959047694 -219.75504040894361 -192.07055404321892
rtibia 67.3554557917293
rfoot -22.93577373878332 -9.88116913647824
rtoes 49.846064279069125
lfemur -109.46604703387418 35.771103461480784 -24.133704205360026
ltibia 68.01516930753063
lfoot -38.29094687583671 35.59612415387846
ltoes 38.96025141510375
127
root 0 0 0 76.31752049149252 -27.4008289667593 -45.45953671019412
lowerback -11.190225347136277 7.862878980596994 9.56927788186505
upperback -20.518440740460342 10.074017986017262 2.9606771380528487
thorax -15.456645806491798 3.96987787745148 -1.7109195502795131
lowerneck -7.541226370184656 9.772293045012322 5.410916575152599
upperneck 11.709554783514996 11.68124282592315 7.288615405083949
head 4.80417976142401 6.2675890413275015 2.0771543631626037
rclavicle 6.086733185813846E-15 -3.4154225121641635E-15
rhumerus 108.52524193463185 -24.883483455301068 -114.97218465082156
rradius 0.8435658384253877
rwrist 69.54373425409426
rhand 13.79697634112619 -12.624498597394046
rfingers 7.125020000000017
rthumb 38.78913028417817 -38.50291608504842
lclavicle -6.444464135003152E-16 1.5015425792474161E-15
lhumerus -0.2005292559437084 24.90712430332107 1.6858687504929293
lradius 9.315462871722257
lwrist -41.454852071552565
lhand 12.124414551812372 36.75029752391096
lfingers 7.125020000000047
lthumb 37.2304829407726 63.836938425937376
rfemur 183.08523566748033 -219.73847321044065 -192.06081172352012
rtibia 67.36607732773436
rfoot -22.875493018130246 -9.923151027877871
rtoes 49.86474384318982
lfemur -109.46242820480957 35.769264359673976 -24.137858569490472
ltibia 68.0524364014492
lfoot -38.298995193792216 35.58691282522039
ltoes 38.94809167920091
128
root 0 0 0 76.31640495551216 -27.406753383054223 -45.45785432962174
lowerback -11.189917086406293 7.862938336482978 9.568171150484059
upperback -20.5173069053791 10.07407028268524 2.9597020487685226
thorax -15.45566461993534 3.969965139675444 -1.7114024694648595
lowerneck -7.543004052292682 9.772130550391168 5.411152908440795
upperneck 11.710233717582375 11.680821215181153 7.28841749116182
head 4.804693789462343 6.267449623967842 2.0771263798801476
rclavicle 6.0777732315568166E-15 -3.4126779723929745E-15
rhumerus 108.52233892487341 -24.882932519940486 -114.98173907166074
rradius 0.8296422273539754
rwrist 69.56552317628866
rhand 13.803714506749866 -12.630350196410012
rfingers 7.125020000000017
rthumb 38.79567599149926 -38.50798388962801
lclavicle -6.667700705410519E-16 1.5027292160194807E-15
lhumerus -0.1613750030323029 24.95734306739346 1.7131486252521952
lradius 9.29092698617714
lwrist -41.46349135097773
lhand 12.10724698899753 36.73789888165216
lfingers 7.125020000000047
lthumb 37.21423360198135 63.82851523673459
rfemur 183.07846817871587 -219.72989010061642 -192.0553684215897
rtibia 67.36960189934834
rfoot -22.852708958066422 -9.942644239728036
rtoes 49.8759481938573
lfemur -109.46290185437495 35.76569821802329 -24.1454813922668
ltibia 68.09087582991293
lfoot -38.3078315141813 35.58067665799015
ltoes 38.934657411936996
129
root 0 0 0 76.31552041728963 -27.41171001433327 -45.45653378284943
lowerback -11.189756397225008 7.862966433646207 9.567343165558341
upperback -20.516331122893057 10.074098210668579 2.958901760438063
thorax -15.454740651281941 3.970023625887406 -1.7118542185634604
lowerneck -7.544455537338756 9.771907904150916 5.411362697610993
upperneck 11.711294374290475 11.680316645343511 7.288177446479479
head 4.805310110017426 6.267265241466259 2.0770725235152065
rclavicle 6.075620058149889E-15 -3.4093980838456055E-15
rhumerus 108.51407889893525 -24.881138236865844 -114.98106243949368
rradius 0.8216899653782406
rwrist 69.57754676515464
rhand 13.810509228126719 -12.635025787953959
rfingers 7.125020000000017
rthumb 38.80221339689796 -38.51165156842788
lclavicle -6.749436000018575E-16 1.5063267435241085E-15
lhumerus -0.1556907986975098 24.9939204732188 1.740220771303882
lradius 9.27235109181282
lwrist -41.47240312016833
lhand 12.092674507490862 36.727638541052684
lfingers 7.125020000000047
lthumb 37.200434605710704 63.821460184574526
rfemur 183.07358613463433 -219.72746510881865 -192.05309682808388
rtibia 67.37077307948009
rfoot -22.85149532428923 -9.949407164532818
rtoes 49.8809505310844
lfemur -109.47053311574005 35.7643732694888 -24.155143601902083
ltibia 68.12656847509558
lfoot -38.30608738980361 35.57756281741934
ltoes 38.923301279865356
130
root 0 0 0 76.32023932109419 -27.38758321231993 -45.464382580000816
lowerback -11.190373113842698 7.86268581792301 9.572236286616633
upperback -20.519882728343855 10.073933613294342 2.9622559693323023
thorax -15.457730971823484 3.969628344136119 -1.7109658414979734
lowerneck -7.538485200805376 9.771477782917188 5.410365395361419
upperneck 11.712348907210396 11.680248670176224 7.287945762949366
head 4.804929878153926 6.2670191539137114 2.0768164010307797
rclavicle 6.145953229893127E-15 -3.3353308381137337E-15
rhumerus 108.59594629598874 -24.88503304893596 -114.96561531933736
rradius 0.8805193849451065
rwrist 69.52673280072109
rhand 13.776887763233159 -12.611975908226503
rfingers 7.125020000000017
rthumb 38.7695573107157 -38.4928063482307
lclavicle -5.650536920698827E-16 1.5866850746080147E-15
lhumerus -0.470766957520361 24.8295666476439 1.7249535206290147
lradius 9.351926871864173
lwrist -41.46334978717842
lhand 12.125312102096652 36.7615892929088
lfingers 7.125020000000047
lthumb 37.231231611784246 63.84632988940835
rfemur 183.0871983296662 -219.77332434962102 -192.07571792257409
rtibia 67.32840479352961
rfoot -23.065555883672907 -9.818530148303482
rtoes 49.81278162909503
lfemur -109.47686883454563 35.77448101625587 -24.14382015740453
ltibia 67.98957646165678
lfoot -38.27049861152141 35.61077822411687
ltoes 38.964627707018415
131
root 0 0 0 76.3178911463695 -27.40011129667856 -45.460480198382164
lowerback -11.189971599154633 7.862858942314544 9.569804105402191
upperback -20.518277133174404 10.074028511116783 2.9606788211527957
thorax -15.456523831906802 3.9698307768767265 -1.7112621710447762
lowerneck -7.541350185209279 9.7720529952482 5.4109154577630365
upperneck 11.710608970417939 11.680842366531756 7.288333387643744
head 4.804633902718947 6.267405141447552 2.077047139972271
rclavicle 6.0932877681388054E-15 -3.4133804694002726E-15
rhumerus 108.61039357441699 -24.898546602533322 -115.00754848888204
rradius 0.8600386171616208
rwrist 69.54495964567795
rhand 13.76820233828926 -12.610996333823055
rfingers 7.125020000000017
rthumb 38.761741450801594 -38.49447848082707
lclavicle -6.194395183640331E-16 1.5115891871375118E-15
lhumerus -0.2853938372771747 24.87428359633209 1.6933256669051744
lradius 9.329765117776784
lwrist -41.453766941691
lhand 12.125640245995788 36.75656340800356
lfingers 7.125020000000047
lthumb 37.231585182844015 63.842138182075644
rfemur 183.097228664475 -219.76121111201527 -192.07582633711206
rtibia 67.35300490733935
rfoot -22.95068633630663 -9.86915041605303
rtoes 49.84674195005104
lfemur -109.47079163184702 35.77153660023116 -24.137407553256086
ltibia 68.03211898714515
lfoot -38.289897085121346 35.5943409323051
ltoes 38.95467798142827
132
root 0 0 0 76.31724613369556 -27.402975753188755 -45.45955229334926
lowerback -11.189688331187899 7.86294026348299 9.569170275735202
upperback -20.517860233493046 10.074095152728423 2.960265211517388
thorax -15.456314584146295 3.969902758091095 -1.7113405274776907
lowerneck -7.542124886236076 9.772224300145071 5.411012224353243
upperneck 11.709765556738562 11.681056358148991 7.288488338947399
head 4.80441288568948 6.267527903862929 2.077127126743499
rclavicle 6.086838163999048E-15 -3.4163930549747775E-15
rhumerus 108.58980001044026 -24.900881705057515 -115.02341917741875
rradius 0.8394363146740034
rwrist 69.56583145292313
rhand 13.772325269383149 -12.614466110200036
rfingers 7.125020000000017
rthumb 38.7658836305771 -38.49773331018776
lclavicle -6.456257701178095E-16 1.5037206665115746E-15
lhumerus -0.1987953036698915 24.915179419955972 1.6926440835886112
lradius 9.311248865847613
lwrist -41.45640816849791
lhand 12.119876451839186 36.74834257086086
lfingers 7.125020000000047
lthumb 37.226169864279925 63.83587136884633
rfemur 183.08858476804886 -219.74504830868437 -192.066499643358
rtibia 67.36257388448774
rfoot -22.89339657310134 -9.90964500075015
rtoes 49.8655293952703
lfemur -109.46723196793866 35.76998958946113 -24.14073489229292
ltibia 68.0666543631918
lfoot -38.297041674794855 35.585415293371035
ltoes 38.943510254783796
